PathFileType  4	(X/Y/Z) C:\Users\antoi\Documents\MyRepositories\mobilecap\ResultsAnalysis
DataRate	CameraRate	NumFrames	NumMarkers	Units	OrigDataRate	OrigDataStartFrame	OrigNumFrames
100.0	100.0	6	51	mm	100.0	84	133
Frame#	Time	r_knee			r_shank_antsup			r_ankle			r_calc			r_5meta			r_toe			L_knee			L_shank_antsup			L_ankle			L_calc			L_5meta			L_toe			r_sh2			r_sh3			r_sh4			L_sh2			L_sh3			r_thigh1			r_thigh2			r_thigh3			r_thigh4			r_thigh5			L_thigh1			L_thigh2			L_thigh3			L_thigh4			r.ASIS			r.PSIS			L.ASIS			L.PSIS			C7			R_Shoulder			L_Shoulder			R_Sternum			L_Sternum			R_humerus			R_elbow_med			R_elbow_lat			R_forearm			R_wrist_radius			R_wrist_ulna			L_humerus			L_elbow_med			L_elbow_lat			L_forearm			L_wrist_radius			L_wrist_ulna			R_HJC			L_HJC			R_HJC_reg			L_HJC_reg			
		X1	Y1	Z1	X2	Y2	Z2	X3	Y3	Z3	X4	Y4	Z4	X5	Y5	Z5	X6	Y6	Z6	X7	Y7	Z7	X8	Y8	Z8	X9	Y9	Z9	X10	Y10	Z10	X11	Y11	Z11	X12	Y12	Z12	X13	Y13	Z13	X14	Y14	Z14	X15	Y15	Z15	X16	Y16	Z16	X17	Y17	Z17	X18	Y18	Z18	X19	Y19	Z19	X20	Y20	Z20	X21	Y21	Z21	X22	Y22	Z22	X23	Y23	Z23	X24	Y24	Z24	X25	Y25	Z25	X26	Y26	Z26	X27	Y27	Z27	X28	Y28	Z28	X29	Y29	Z29	X30	Y30	Z30	X31	Y31	Z31	X32	Y32	Z32	X33	Y33	Z33	X34	Y34	Z34	X35	Y35	Z35	X36	Y36	Z36	X37	Y37	Z37	X38	Y38	Z38	X39	Y39	Z39	X40	Y40	Z40	X41	Y41	Z41	X42	Y42	Z42	X43	Y43	Z43	X44	Y44	Z44	X45	Y45	Z45	X46	Y46	Z46	X47	Y47	Z47	X48	Y48	Z48	X49	Y49	Z49	X50	Y50	Z50	X51	Y51	Z51	

84	0.83000000	1080.49967	504.12309	-21.30967	1079.05082	424.32586	-39.42487	797.18968	231.50334	-35.39145	726.11124	259.55196	-67.71491	824.97567	108.82065	-20.70435	878.67397	102.35729	-76.52836	996.46703	495.29987	-302.31833	1023.52842	396.12060	-297.55649	916.41443	101.36984	-275.78551	835.54626	66.89028	-244.97221	1021.64538	40.53419	-293.11052	1051.56465	62.15246	-229.10830	984.90246	359.27550	-13.43864	1033.24473	485.80572	-7.99844	942.12877	419.56196	-5.08857	937.77351	416.31115	-320.60756	920.87158	295.07747	-321.19412	1034.01436	817.87210	-3.38545	1071.49679	709.11583	-3.50245	1019.78825	670.71235	17.63697	925.39407	780.15607	3.21733	966.99263	668.91540	-4.43407	1006.54826	762.21030	-360.66712	1026.13664	628.82089	-329.19103	895.07586	747.56508	-341.15606	919.55463	611.53679	-316.83914	1013.54734	967.87363	-43.38009	829.12606	1001.49355	-133.58884	1036.41451	960.13771	-294.22775	828.44487	1010.90103	-234.67094	838.75179	1423.78701	-198.45184	941.61535	1389.37904	-21.34937	913.36874	1380.05131	-375.82133	977.16851	1384.22442	-177.77482	981.47736	1383.30045	-221.80720	964.24448	1259.53271	44.37356	909.46849	1043.29419	30.97985	943.25362	1066.03229	91.37871	1040.75058	960.67539	75.17400	1104.04908	843.54767	63.73323	1091.69021	832.57012	95.76621	926.98677	1266.52644	-437.94768	841.91778	1040.54095	-415.13178	887.42577	1060.21692	-476.77114	940.60109	956.61731	-453.83974	962.03250	799.51396	-455.39290	959.34325	803.30510	-489.88051	939.70488	886.42277	-72.81638	954.16005	887.34236	-278.77568	956.21125	878.08615	-85.48564	955.09824	893.50114	-251.08871	
85	0.84000000	1099.46705	508.93595	-23.37249	1100.66023	429.43817	-41.17057	826.82939	224.96751	-34.93306	754.11018	249.45699	-66.62950	860.94583	103.91235	-20.29744	914.21171	99.92488	-76.67761	999.00771	495.62728	-302.66859	1025.01958	396.24090	-297.97929	916.88465	102.10149	-275.58811	835.85106	67.40208	-244.87418	1021.75129	40.53340	-293.16717	1051.80061	62.07054	-229.21583	1009.12401	360.51359	-14.89467	1052.29851	488.99984	-9.94176	964.15338	419.02183	-6.00717	939.46064	416.91973	-320.66060	921.85375	295.82714	-321.21439	1047.36968	821.82136	-3.63027	1086.43650	714.20881	-4.55557	1036.17205	674.61777	17.32930	939.65286	782.27808	4.37566	983.33105	671.59001	-3.94178	1013.67992	762.41823	-360.62116	1031.00321	628.75236	-329.36472	901.96760	749.70935	-341.01607	924.10748	613.24679	-316.74543	1024.56666	970.48822	-44.33912	839.63595	1003.27797	-132.65900	1045.80603	961.18636	-295.06719	838.32689	1012.11850	-233.72506	849.55803	1425.46388	-199.26870	951.59487	1390.94789	-21.78068	924.31293	1382.04996	-376.23774	987.71520	1385.81130	-178.08851	992.13568	1384.90938	-222.02920	973.08053	1261.04837	44.44300	916.38997	1045.38345	31.18668	949.72250	1067.91085	91.82298	1046.26259	961.46884	77.09678	1108.28010	843.56320	66.67751	1095.47446	832.79596	98.61465	939.06196	1268.60739	-438.52090	858.10693	1041.07819	-415.25800	903.23392	1061.35915	-476.99698	958.47802	958.89083	-453.41877	982.89394	802.22150	-454.23494	980.23393	805.80539	-488.69571	950.89874	888.70377	-72.34123	963.59186	888.44551	-278.41794	967.09249	880.35481	-85.55647	964.95058	894.83670	-251.09448	
86	0.85000000	1117.79269	513.54795	-25.39003	1121.73871	434.32960	-42.92738	857.06986	217.77238	-34.51233	782.89987	238.56379	-65.59311	897.59601	98.71934	-19.96294	950.36876	97.28512	-76.85497	1001.50963	495.95403	-302.90480	1026.45711	396.38357	-298.29585	917.25172	102.73223	-275.36159	836.19606	67.98177	-244.72491	1021.86201	40.54657	-293.19179	1052.04783	61.97990	-229.30349	1033.31989	361.39947	-16.24584	1070.67641	491.79135	-11.70037	985.98941	417.87254	-6.80166	941.11661	417.54844	-320.59563	922.80292	296.60529	-321.14677	1060.67308	825.58191	-3.84906	1101.25017	718.99589	-5.65520	1052.32370	678.35611	17.01995	953.95492	784.46766	5.70957	999.48091	674.17881	-3.32398	1020.66121	762.54146	-360.51705	1035.79670	628.63587	-329.43502	908.76297	751.68941	-340.71276	928.63291	614.89309	-316.52176	1035.63300	972.87212	-45.29766	850.15396	1004.96779	-131.59147	1055.12243	962.10286	-295.94150	848.16108	1013.23364	-232.62526	860.32677	1427.00070	-200.04742	961.56749	1392.37502	-22.18933	935.22284	1383.90694	-376.64569	998.21135	1387.32314	-178.43031	1002.75959	1386.45778	-222.27264	981.89308	1262.44915	44.57523	923.27923	1047.36663	31.47266	956.17861	1069.68768	92.31789	1051.73456	962.17545	79.06279	1112.43028	843.49383	69.65004	1099.17867	832.94619	101.48638	951.25379	1270.56742	-439.04146	874.28112	1041.59925	-415.39230	919.06691	1062.47333	-477.19489	976.38740	961.20774	-452.88673	1003.88450	805.07417	-452.80282	1001.20876	808.38690	-487.24051	962.11649	890.80500	-71.85960	972.91619	889.44135	-278.03943	977.95090	882.48808	-85.58874	974.68712	896.02728	-251.07713	
87	0.86000000	1135.47011	517.88570	-27.32661	1142.21313	438.93690	-44.69833	887.92647	209.99461	-34.17245	812.49592	226.96742	-64.66471	934.87091	93.37390	-19.69012	987.10543	94.55413	-77.04342	1004.00774	496.25926	-303.00480	1027.91652	396.53383	-298.48993	917.48617	103.22145	-275.12213	836.56086	68.61442	-244.51176	1021.96483	40.56885	-293.18148	1052.29241	61.88253	-229.35988	1057.48005	361.91899	-17.47473	1088.39227	494.09600	-13.23525	1007.64535	416.10441	-7.46689	942.77662	418.18451	-320.40587	923.74625	297.39614	-320.97943	1073.90524	829.13494	-4.10674	1115.93498	723.40754	-6.80676	1068.20710	681.91704	16.73642	968.27226	786.68564	7.14468	1015.41643	676.67465	-2.59977	1027.45498	762.56019	-360.35060	1040.51441	628.45905	-329.37710	915.42698	753.46658	-340.20026	933.14761	616.45751	-316.11636	1046.74810	975.03393	-46.22957	860.69964	1006.56933	-130.43738	1064.41536	962.84911	-296.82440	857.98509	1014.24817	-231.41799	871.06769	1428.37615	-200.77432	971.55941	1393.62962	-22.56867	946.13335	1385.58616	-377.04680	1008.68112	1388.71968	-178.79085	1013.35879	1387.90403	-222.53225	990.69223	1263.70680	44.76920	930.14869	1049.21718	31.84282	962.67354	1071.34238	92.88044	1057.19223	962.76001	81.05853	1116.52507	843.31411	72.63609	1102.83949	832.99634	104.37907	963.55249	1272.36593	-439.49900	890.41408	1042.06312	-415.55536	934.94164	1063.52351	-477.36370	994.30144	963.52957	-452.24206	1024.99912	808.04335	-451.10814	1022.26470	811.02753	-485.52556	973.34853	892.73735	-71.36210	982.17876	890.30367	-277.62591	988.79819	884.47216	-85.56374	984.34876	897.05236	-251.02109	
88	0.87000000	1152.48015	521.88314	-29.16031	1162.01812	443.23145	-46.46966	919.41433	201.71694	-33.93744	842.89962	214.73866	-63.88112	972.74967	88.00274	-19.47912	1024.39981	91.86352	-77.24412	1006.53353	496.52819	-302.96695	1029.45824	396.67986	-298.56100	917.59833	103.57952	-274.87833	836.92324	69.28121	-244.22592	1022.04680	40.59350	-293.13827	1052.52818	61.78350	-229.37903	1081.55503	362.09343	-18.59435	1105.46896	495.85339	-14.55828	1029.11193	413.73685	-8.01941	944.47204	418.81312	-320.10434	924.71284	298.18118	-320.71005	1087.02996	832.45583	-4.46340	1130.42508	727.41769	-8.01266	1083.79328	685.28903	16.49917	982.53849	788.87733	8.62215	1031.09355	679.10471	-1.78458	1034.05099	762.46688	-360.11601	1045.16098	628.21851	-329.17993	921.94803	755.04690	-339.46599	937.65832	617.93040	-315.49624	1057.90562	976.98862	-47.12033	871.28872	1008.07382	-129.23840	1073.72711	963.38997	-297.68282	867.82597	1015.15734	-230.14357	881.79147	1429.57294	-201.43762	981.59621	1394.68544	-22.91443	957.05886	1387.05876	-377.43792	1019.14922	1389.96078	-179.15695	1023.94245	1389.20426	-222.79734	999.49298	1264.79852	45.01624	937.01752	1050.91207	32.29955	969.25494	1072.86304	93.53126	1062.65871	963.19701	83.07310	1120.58609	843.00494	75.62555	1106.48338	832.92817	107.29102	975.93012	1273.97169	-439.89015	906.49356	1042.43353	-415.75317	950.86256	1064.47886	-477.50022	1012.19515	965.82315	-451.48488	1046.20733	811.09652	-449.16347	1043.38259	813.70501	-483.56411	984.58722	894.51009	-70.83641	991.42095	891.00524	-277.16101	999.65544	886.28720	-85.47380	993.97497	897.89791	-250.90915	
89	0.88000000	1168.79020	525.48022	-30.88283	1181.10710	447.20799	-48.21297	951.54508	193.04089	-33.80266	874.12021	201.95401	-63.24165	1011.22679	82.72630	-19.34430	1062.23599	89.35777	-77.47402	1009.10725	496.75670	-302.80629	1031.11125	396.81344	-298.51835	917.63903	103.86360	-274.62563	837.26829	69.96575	-243.86463	1022.09897	40.61532	-293.06713	1052.75452	61.68658	-229.36013	1105.46337	361.97575	-19.63193	1121.93751	497.02427	-15.71355	1050.36624	410.81023	-8.48977	946.22676	419.42179	-319.71519	925.72823	298.94399	-320.34318	1100.00071	835.51033	-4.96624	1144.63304	731.02254	-9.27864	1099.06129	688.45094	16.30835	996.66333	790.98005	10.10353	1046.44937	681.50109	-0.89043	1040.47853	762.26539	-359.80671	1049.74958	627.91628	-328.84802	928.34711	756.48334	-338.52204	942.16583	619.31257	-314.65322	1069.09432	978.74970	-47.96303	881.93095	1009.45795	-128.02351	1083.08173	963.69571	-298.48286	877.69686	1015.95015	-228.83419	892.50867	1430.57768	-202.02985	991.69944	1395.52171	-23.22536	967.99775	1388.30200	-377.81209	1029.63775	1391.01113	-179.51425	1034.52189	1390.31946	-223.05568	1008.31174	1265.70590	45.30332	943.91013	1052.43004	32.84078	975.95457	1074.23797	94.27839	1068.15294	963.46980	85.09714	1124.63368	842.55377	78.61312	1110.13430	832.73206	110.21889	988.35539	1275.36169	-440.21572	922.51952	1042.68243	-415.97909	966.82326	1065.31549	-477.59908	1030.04894	968.06194	-450.61548	1067.45715	814.19991	-446.98232	1064.53151	816.39752	-481.37159	995.82580	896.12621	-70.27013	1000.67300	891.51952	-276.62951	1010.54745	887.90485	-85.31945	1003.59651	898.55397	-250.72538	
